<svg id="Layer_5" enable-background="new 0 0 62 62" height="512" viewBox="0 0 62 62" width="512" xmlns="http://www.w3.org/2000/svg"><g><circle cx="18" cy="20" r="1"/><circle cx="28" cy="20" r="1"/><path d="m23 28c-1.358 0-2.55-.915-2.899-2.224l-1.933.515c.582 2.184 2.569 3.709 4.832 3.709 2.299 0 4.293-1.556 4.85-3.783l-1.939-.485c-.335 1.335-1.532 2.268-2.911 2.268z"/><path d="m22.447 24.895 1.105-.553c.478-.239.834-.65 1.003-1.157s.131-1.049-.108-1.527l-.447-.894v-1.764h-2v2c0 .155.036.309.105.447l.553 1.105-1.105.553z"/><path d="m45.414 32c.645 0 1.25-.251 1.707-.707l3.293-3.293h8.586c1.654 0 3-1.346 3-3v-16c0-1.654-1.346-3-3-3h-24.028c-2.74-3.635-7.079-6-11.972-6-8.271 0-15 6.729-15 15v1.557c-1.19.694-2 1.97-2 3.443 0 2.206 1.794 4 4 4v15.158c-2.365 2.263-3.835 5.391-3.977 8.842h-3.023c-1.654 0-3 1.346-3 3s1.346 3 3 3h8c.552 0 1 .449 1 1v1c0 1.654 1.346 3 3 3s3-1.346 3-3v-4c0-.551.448-1 1-1s1 .449 1 1v7c0 1.654 1.346 3 3 3s3-1.346 3-3v-2c0-.551.448-1 1-1h3v2h6.184c.414 1.161 1.514 2 2.816 2h6.401c.769 1.243 2.115 2 3.599 2s2.83-.757 3.599-2h6.401c1.654 0 3-1.346 3-3v-12c0-1.654-1.346-3-3-3h-1v-4h-6c-1.201 0-2.266.542-3 1.382-.734-.84-1.799-1.382-3-1.382h-6v4h-1c-.254 0-.496.041-.731.101-1.796-3.146-4.781-5.399-8.347-6.222l-2.922-.674.001-1.546c2.642-1.132 4.701-3.169 5.884-5.659h10.115v1.586c0 1.331 1.083 2.414 2.414 2.414zm-35.414-17c0-7.168 5.832-13 13-13s13 5.832 13 13v1h-2v-1c0-6.065-4.935-11-11-11s-11 4.935-11 11v1h-2zm24.001 7-.001-4h2c1.103 0 2 .897 2 2s-.897 2-2 2zm-2.001-6.086c-1.286-.206-2.474-.803-3.414-1.742l-1.86-1.86-1.318 2.637c-1.16-.2-2.144-.983-2.593-2.106l-.264-.659c-.531-1.327-1.798-2.184-3.227-2.184-1.165 0-2.246.579-2.892 1.547l-.994 1.492c-.463.065-.899.215-1.298.426.733-4.232 4.422-7.465 8.86-7.465 4.963 0 9 4.038 9 9zm-24 4.086c0-1.103.897-2 2-2h2v4h-2c-1.103 0-2-.896-2-2zm4 4h.042c.35 4.237 3.001 7.964 6.958 9.659v1.545l-2.923.674c-1.483.342-2.854.924-4.077 1.7zm7.685 13.099 1.901 1.901-2.972 2.971-.884-4.421zm-9.685 5.112v4.789c0 .551-.448 1-1 1h-.977c.104-2.139.81-4.129 1.977-5.789zm22 13.789v-2h4v2zm20-16h4v14h-6v-12c0-1.103.897-2 2-2zm-10 0h4c1.103 0 2 .897 2 2v12h-6zm-2 4v12h8 2 8v-12h1c.552 0 1 .449 1 1v12c0 .551-.448 1-1 1h-7.618l-.382.764c-.381.762-1.147 1.236-2 1.236s-1.619-.474-2-1.236l-.382-.764h-7.618c-.552 0-1-.449-1-1v-12c0-.551.448-1 1-1zm-3.397-.785c-.374.5-.603 1.114-.603 1.785v7h-6v2h-3c-1.654 0-3 1.346-3 3v2c0 .551-.448 1-1 1s-1-.449-1-1v-7c0-1.654-1.346-3-3-3s-3 1.346-3 3v4c0 .551-.448 1-1 1s-1-.449-1-1v-1c0-1.654-1.346-3-3-3h-8c-.552 0-1-.449-1-1s.448-1 1-1h6c1.654 0 3-1.346 3-3v-6.942c1.094-.899 2.37-1.595 3.786-2.025l1.599 7.996 4.615-4.615v6.586h2v-6.586l4.614 4.614 1.596-7.986c2.734.833 5.006 2.67 6.393 5.173zm-8.333-5.665-.884 4.421-2.972-2.971 1.901-1.901zm-2.059-5.728c-.737.317-1.213 1.04-1.211 1.838v1.926l-2 2-2-2v-1.929c-.002-.8-.478-1.52-1.213-1.835-3.515-1.507-5.786-4.952-5.787-8.776v-6.046c0-1.103.897-2 2-2h.535l1.562-2.343c.274-.411.733-.657 1.227-.657.606 0 1.144.364 1.369.927l.264.659c.83 2.074 2.809 3.414 5.043 3.414h.618l.656-1.313c1.304 1.259 2.95 2.04 4.726 2.253l.001 5.103c0 3.826-2.272 7.271-5.79 8.779zm7.399-5.822c.172-.65.292-1.317.348-2h2.042c2.206 0 4-1.794 4-4 0-1.474-.81-2.75-2-3.444v-1.556c0-2.528-.635-4.908-1.744-7h22.744c.552 0 1 .449 1 1v16c0 .551-.448 1-1 1h-9.414l-3.878 3.878c-.243.24-.708.047-.708-.292v-3.586z"/><path d="m48 22h-4v-4h4v-2h-4v-4h4v-2h-6v14h6z"/><path d="m52 14.162 3.279 9.838h2.721v-14h-2v9.838l-3.279-9.838h-2.721v14h2z"/><path d="m44 50h2v2h-2z"/><path d="m44 42h2v2h-2z"/><path d="m44 46h2v2h-2z"/><path d="m52 46h2v2h-2z"/><path d="m52 42h2v2h-2z"/><path d="m52 50h2v2h-2z"/></g></svg>