<svg id="Layer_1" enable-background="new 0 0 1024 1024" viewBox="0 0 1024 1024" xmlns="http://www.w3.org/2000/svg"><g id="XMLID_2_"><g id="XMLID_11_"><g id="XMLID_21_"><path id="XMLID_25_" d="m493.4 837.7c0-23 0-46 0-69 0-36.7 0-73.5 0-110.2 0-8.5 0-17 0-25.5 0-21.6-18.3-40-40-40-12.2 0-24.3 0-36.5 0-29.2 0-58.4 0-87.6 0-35.3 0-70.7 0-106 0-30.6 0-61.1 0-91.7 0-14.9 0-29.8-.3-44.7 0-.2 0-.4 0-.7 0 13.3 13.3 26.7 26.7 40 40 0-27.4 0-54.7 0-82.1 0-43.2 0-86.5 0-129.7 0-10 0-20 0-30.1-13.3 13.3-26.7 26.7-40 40h36.5 87.6 106 91.7c14.9 0 29.8.3 44.7 0h.7c21.6 0 40-18.3 40-40 0-23 0-46 0-69 0-36.7 0-73.5 0-110.2 0-8.5 0-17 0-25.5-22.8 9.4-45.5 18.9-68.3 28.3 10.8 10.8 21.6 21.6 32.4 32.4l77.9 77.9c31.3 31.3 62.6 62.6 93.8 93.8 27.1 27.1 54.3 54.3 81.4 81.4 13.2 13.2 26.1 26.6 39.5 39.5l.6.6c0-18.9 0-37.7 0-56.6-10.8 10.8-21.6 21.6-32.4 32.4-26 26-51.9 51.9-77.9 77.9-31.3 31.3-62.6 62.6-93.8 93.8-27.1 27.1-54.3 54.3-81.4 81.4-13.2 13.2-26.6 26.1-39.5 39.5-.2.2-.4.4-.6.6-14.8 14.8-15.9 42 0 56.6 16 14.7 40.8 15.8 56.6 0 10.8-10.8 21.6-21.6 32.4-32.4l77.9-77.9 93.8-93.8 81.4-81.4c13.2-13.2 26.6-26.1 39.5-39.5l.6-.6c15.3-15.3 15.3-41.3 0-56.6-10.8-10.8-21.6-21.6-32.4-32.4-26-26-51.9-51.9-77.9-77.9-31.3-31.3-62.6-62.6-93.8-93.8-27.1-27.1-54.3-54.3-81.4-81.4-13.2-13.2-26-26.7-39.5-39.5-.2-.2-.4-.4-.6-.6-11.4-11.4-29-14.5-43.7-8.3-14.5 6.1-24.6 20.5-24.6 36.6v69 110.2 25.5l40-40c-12.2 0-24.3 0-36.5 0-29.2 0-58.4 0-87.6 0-35.3 0-70.7 0-106 0-30.6 0-61.1 0-91.7 0-14.9 0-29.8-.3-44.7 0-.2 0-.4 0-.7 0-21.6 0-40 18.3-40 40v82.1 129.7 30.1c0 21.6 18.3 40 40 40h36.5 87.6 106 91.7c14.9 0 29.8.3 44.7 0h.7c-13.3-13.3-26.7-26.7-40-40v69 110.2 25.5c0 20.9 18.4 41 40 40 21.7-1 40-17.6 40-40z"/></g></g><g id="XMLID_1_"><g id="XMLID_15_"><path id="XMLID_19_" d="m725.9 120.6h112.3c7.5 0 15.1-.2 22.6.7-3.5-.5-7.1-1-10.6-1.4 8.1 1.1 15.9 3.2 23.4 6.4-3.2-1.3-6.4-2.7-9.6-4 6.9 3 13.3 6.8 19.3 11.4-2.7-2.1-5.4-4.2-8.1-6.3 5.9 4.6 11.1 9.9 15.8 15.8-2.1-2.7-4.2-5.4-6.3-8.1 4.6 6 8.4 12.4 11.4 19.3-1.3-3.2-2.7-6.4-4-9.6 3.2 7.5 5.3 15.3 6.4 23.4-.5-3.5-1-7.1-1.4-10.6 1.1 9 .7 18.2.7 27.2v49.2 74 91.5 100 101 94.4 78.9 56.1 24.8c0 3.9-.2 7.8-.7 11.7.5-3.5 1-7.1 1.4-10.6-1.1 8.1-3.2 15.9-6.4 23.4 1.3-3.2 2.7-6.4 4-9.6-3 6.9-6.8 13.3-11.4 19.3 2.1-2.7 4.2-5.4 6.3-8.1-4.6 5.9-9.9 11.1-15.8 15.8 2.7-2.1 5.4-4.2 8.1-6.3-6 4.6-12.4 8.4-19.3 11.4 3.2-1.3 6.4-2.7 9.6-4-7.5 3.2-15.3 5.3-23.4 6.4 3.5-.5 7.1-1 10.6-1.4-16 1.9-32.6.7-48.6.7-23.1 0-46.3 0-69.4 0-5.6 0-11.2 0-16.8 0-20.9 0-41 18.4-40 40 1 21.7 17.6 40 40 40h116.4c11.2 0 22-.8 33.1-2.7 23.2-4.1 45.1-16.6 62.3-32.5 25.7-23.9 39.9-58.8 39.9-93.6 0-18.2 0-36.4 0-54.6 0-39.2 0-78.4 0-117.6 0-50.5 0-100.9 0-151.4 0-51.7 0-103.3 0-155 0-42.8 0-85.5 0-128.3 0-24.1 0-48.3 0-72.4 0-14-1-28.2-4.9-41.7-6.5-22.4-19.4-44-37-59.4-17.4-15.2-38.6-27.3-61.7-31-20.8-3.3-41.5-2.5-62.4-2.5-24 0-48 0-72.1 0-4.6 0-9.1 0-13.7 0-20.9 0-41 18.4-40 40 .9 21.6 17.5 39.9 40 39.9z"/></g></g></g></svg>