<svg id="Layer_1" enable-background="new 0 0 407.589 367.398" height="512" viewBox="0 0 407.589 367.398" width="512" xmlns="http://www.w3.org/2000/svg"><g><path d="m127.39 343.064h4.143v-5.333h-4.143v-41.667h4.143v-5.333h-4.143v-41.667h4.143v-5.333h-4.143v-41.667h4.143v-5.333h-4.143v-41.667h4.143v-5.333h-4.143v-41.667h4.143v-5.333h-4.143v-41.667h4.143v-5.333h-4.143v-28.565h-6.237v28.566h-84.273v-28.566h-6.237v28.566h-3.111v5.333h3.111v41.667h-3.111v5.333h3.111v41.667h-3.111v5.333h3.111v41.667h-3.111v5.333h3.111v41.667h-3.111v5.333h3.111v41.667h-3.111v5.333h3.111v41.667h-3.111v5.333h3.111v16.333h-30.643v8h51.052v-8h-14.172v-16.333h84.273v16.333h-6.677v8h51.052v-8h-38.138zm-90.51-282h84.273v41.667h-84.273zm0 276.667v-41.667h17.344v-5.333h-17.344v-41.667h17.344v-5.333h-17.344v-33.239l-.245-9.873c-.034-1.386.261-2.703.8-3.888h-.555v-41.667h68.99l-.23-5.28c-.001-.018.001-.035 0-.053h-68.76v-41.667h84.273v35.38c1.332 1.483 2.178 3.418 2.271 5.566l1.75 40.25c.152 3.517-1.787 6.799-4.941 8.362l-8.967 4.441h9.888v41.667h-16.511v5.333h16.511v41.667h-16.511v2.667c0 .915-.101 1.806-.285 2.667h16.796v41.667z"/><path d="m85.1 160.398c-11.322 0-20.5 9.178-20.5 20.5 0 3.746 1.021 7.245 2.775 10.267h25.787l11.968-5.926c.302-1.4.47-2.851.47-4.341 0-11.322-9.178-20.5-20.5-20.5z"/><path d="m56.625 323.44c0 5.729 4.646 10.375 10.378 10.375 5.727 0 10.373-4.646 10.373-10.375v-49.416h4.113v19.374c0 5.729 4.646 10.375 10.377 10.375 5.729 0 10.375-4.646 10.375-10.375v-89.543l16.926-8.382c2.306-1.142 3.721-3.537 3.609-6.107l-1.75-40.25c-.156-3.587-3.237-6.375-6.776-6.211-3.587.156-6.367 3.189-6.212 6.776l1.566 36.021-15.882 7.864h-29.462c-.238-.026-.48-.043-.725-.043-.305 0-.607.017-.908.043h-.002c-.815 0-1.591.164-2.299.458-2.808.885-5.522 2.969-8.289 6.401l-.005-.188c-.089-3.589-3.055-6.424-6.659-6.336-3.589.089-6.426 3.071-6.337 6.66l.607 24.448c.077 3.091 2.32 5.698 5.364 6.238.381.067.761.1 1.137.1 2.629 0 5.052-1.601 6.045-4.116 1.31-3.322 2.861-6.673 4.437-9.7v105.909z"/><path d="m390.161 281.382-42.811 21.707c-2.289 1.161-3.212 3.983-2.052 6.273 1.161 2.289 3.983 3.213 6.273 2.052l42.811-21.707c2.289-1.161 3.213-3.983 2.052-6.273s-3.984-3.213-6.273-2.052z"/><path d="m298.672 255.591 37.392 38.56c3.988 4.112 10.558 4.214 14.672.224 4.112-3.988 4.214-10.558.226-14.671l-46.129-47.57-20.213-45.315 40.273-26.349c6.65 44.001 18.256 93.648 38.512 129.99l3.494-1.947c-19.845-35.604-31.464-84.406-38.259-130.494l.786-.514c3.004-1.966 3.846-5.994 1.881-8.998-1.038-1.586-2.653-2.562-4.386-2.848-7.823-59.736-7.848-112.312-7.781-121.66h75.342v-23.999h-394.482v23.999h315.137c-.065 8.243-.09 48.805 4.901 97.885.786 7.725 1.726 15.913 2.846 24.405-.196.101-.388.213-.577.337l-49.576 32.437-27.656 12.336c-.229.073-.457.157-.681.257-5.64 2.515-34.243 1.41-57.51-1.054-3.561-.377-6.771 2.208-7.148 5.779-.378 3.569 2.209 6.77 5.778 7.148 5.51.584 25.235 2.543 41.882 2.543 5.775 0 11.173-.238 15.484-.849l19.485 43.684 2.41 74.667c.185 5.726 4.978 10.22 10.707 10.035 5.724-.185 10.218-4.979 10.033-10.704l-1.955-60.571z"/><path d="m240.803 144.576c-10.34 4.612-14.983 16.733-10.371 27.073s16.733 14.983 27.073 10.371 14.983-16.733 10.371-27.073c-4.612-10.339-16.733-14.983-27.073-10.371zm23.661 22.428c-.93 4.922-4.295 9.272-9.304 11.195s-10.421.94-14.405-2.097z"/><path d="m399.539 275.648c-2.756-1.052-5.437.191-5.549.245-.498.235-.71.828-.476 1.327.233.498.824.715 1.328.481.02-.009 2.051-.932 3.999-.18 1.246.482 2.232 1.566 2.931 3.224.161.382.532.611.922.611.13 0 .262-.025.389-.078.509-.215.747-.802.533-1.311-.921-2.184-2.293-3.639-4.077-4.319z"/><path d="m407.524 277.831c-1.247-3.308-3.188-5.554-5.767-6.678-3.925-1.708-7.853-.139-8.019-.069-.511.209-.754.79-.546 1.301.207.512.789.753 1.302.551.033-.014 3.343-1.318 6.481.06 2.058.902 3.631 2.767 4.677 5.541.15.4.531.647.936.647.117 0 .236-.021.353-.064.516-.195.778-.772.583-1.289z"/><path d="m342.905 316.351c-.021-.004-2.202-.425-3.356-2.144-.749-1.114-.933-2.573-.546-4.338.118-.539-.223-1.072-.763-1.19s-1.072.223-1.19.763c-.509 2.317-.227 4.296.839 5.881 1.644 2.447 4.552 2.978 4.675 2.999.058.01.115.015.172.015.478 0 .899-.343.984-.829.094-.545-.271-1.062-.815-1.157z"/><path d="m340.444 320.447c-.034-.008-3.461-.823-5.249-3.77-1.169-1.926-1.383-4.362-.635-7.24.139-.535-.182-1.081-.716-1.22-.534-.141-1.08.181-1.22.716-.889 3.422-.6 6.376.86 8.781 2.223 3.662 6.338 4.642 6.512 4.682.075.018.15.025.225.025.456 0 .867-.313.974-.776.124-.538-.213-1.075-.751-1.198z"/><path d="m254.611 248.161c-.402-.378-1.036-.359-1.413.044-1.625 1.729-2.396 3.573-2.295 5.479.157 2.944 2.384 4.89 2.478 4.972.189.162.421.241.652.241.281 0 .561-.118.759-.348.359-.419.312-1.051-.106-1.411-.018-.014-1.674-1.493-1.785-3.561-.071-1.341.52-2.688 1.755-4.004.378-.401.357-1.034-.045-1.412z"/><path d="m249.658 245.501c-2.517 2.482-3.782 5.167-3.761 7.981.031 4.282 3.063 7.232 3.191 7.356.193.185.441.277.689.277.263 0 .524-.104.722-.308.382-.396.37-1.029-.026-1.413-.025-.024-2.561-2.519-2.576-5.948-.011-2.246 1.054-4.44 3.165-6.522.394-.388.397-1.021.01-1.414s-1.023-.396-1.414-.009z"/><path d="m189.7 84.731c0-10.444-7.983-19.057-18.167-20.065v-36.935h-4v36.935c-10.184 1.008-18.167 9.621-18.167 20.065 0 11.12 9.047 20.167 20.167 20.167s20.167-9.047 20.167-20.167zm-20.167 15.167c-8.363 0-15.167-6.804-15.167-15.167 0-8.362 6.804-15.166 15.167-15.166s15.167 6.803 15.167 15.166-6.804 15.167-15.167 15.167z"/><path d="m218.783 27.731v36.935c-10.184 1.008-18.167 9.621-18.167 20.065 0 11.12 9.047 20.167 20.167 20.167s20.167-9.047 20.167-20.167c0-10.444-7.983-19.057-18.167-20.065v-36.935zm17.167 57c0 8.363-6.804 15.167-15.167 15.167s-15.167-6.804-15.167-15.167c0-8.362 6.804-15.166 15.167-15.166s15.167 6.803 15.167 15.166z"/><path d="m270.033 27.731v36.935c-10.184 1.008-18.167 9.621-18.167 20.065 0 11.12 9.047 20.167 20.167 20.167s20.167-9.047 20.167-20.167c0-10.444-7.983-19.057-18.167-20.065v-36.935zm17.167 57c0 8.363-6.804 15.167-15.167 15.167s-15.167-6.804-15.167-15.167c0-8.362 6.804-15.166 15.167-15.166s15.167 6.803 15.167 15.166z"/><path d="m57.238 359.398h51.052v8h-51.052z"/><path d="m171.714 359.398h51.052v8h-51.052z"/><path d="m228.952 359.398h51.052v8h-51.052z"/><path d="m286.19 359.398h51.052v8h-51.052z"/><path d="m343.428 359.398h51.052v8h-51.052z"/></g></svg>